<?xml version="1.0" encoding="UTF-8"?>
<svg width="24px" height="27px" viewBox="0 0 24 27" version="1.1" xmlns="http://www.w3.org/2000/svg" xmlns:xlink="http://www.w3.org/1999/xlink">
    <!-- Generator: Sketch 49.2 (51160) - http://www.bohemiancoding.com/sketch -->
    <title>Page 1 Copy</title>
    <desc>Created with Sketch.</desc>
    <defs></defs>
    <g id="Page-1" stroke="none" stroke-width="1" fill="none" fill-rule="evenodd">
        <g id="veneers_no-hover" transform="translate(-257.000000, -3414.000000)" fill="#FFFFFE" stroke="#E93E3E">
            <g id="Page-1-Copy" transform="translate(258.000000, 3415.000000)">
                <path d="M17.4955439,0.44772388 C15.455662,-0.11297834 13.4122367,-0.0183496437 11.3881636,0.607885669 C11.1447624,0.683207936 10.8509365,0.659006919 10.5930893,0.611964492 C9.48238397,0.410198707 8.3932113,0.0352189002 7.46921347,0.00367600127 C6.47516625,-0.03004227 5.71661582,0.175258495 4.9738742,0.330525695 C2.27356549,0.895850582 0.436199893,2.66279677 0.109938712,5.05217136 C-0.186340238,7.22101758 0.0924945055,9.31236617 1.23699801,11.2269657 C1.97973963,12.4699191 2.54803918,13.766441 2.60664082,15.2369927 C2.63471509,15.9415415 2.62081423,16.6482655 2.66033627,17.3519985 C2.76282098,19.1736009 2.96342936,20.9797038 3.79202918,22.6454952 C4.30308993,23.6728147 5.00521926,24.5165873 6.15544665,24.8728045 C7.45422236,25.2752484 8.4338236,24.7072043 8.69030795,23.3883848 C8.76771662,22.9897478 8.79033958,22.5791463 8.81514306,22.1723517 C8.89282429,20.913083 8.85411996,19.6355956 9.06290531,18.3991684 C9.23816507,17.3585246 9.59004743,16.3129863 10.0599508,15.3664274 C10.5083214,14.463104 11.3985211,14.5025326 11.9518295,15.3637082 C12.2279386,15.7933442 12.42037,16.2885133 12.5836369,16.7766125 C13.164747,18.5139192 13.0927897,20.3262763 13.1650196,22.12259 C13.1865523,22.6561001 13.251968,23.1993993 13.3890686,23.7138749 C13.6202043,24.5815765 14.1707871,25.0041426 15.0664381,24.9478549 C15.5668688,24.9165839 16.1016428,24.7765443 16.5391108,24.5369814 C17.5696818,23.9732881 18.113723,22.9864848 18.5105787,21.9278942 C19.2124355,20.0557144 19.3498086,18.0946162 19.3429945,16.1204658 C19.3372706,14.4451572 19.7294927,12.8919414 20.6199649,11.4629936 C21.3989578,10.2126984 21.8072612,8.84411727 21.9517211,7.37655671 C22.3014229,3.82362983 20.7448,1.34125807 17.4955439,0.44772388" id="Fill-2"></path>
            </g>
        </g>
    </g>
</svg>